<svg xmlns="http://www.w3.org/2000/svg" xmlns:xlink="http://www.w3.org/1999/xlink" width="500" zoomAndPan="magnify" viewBox="0 0 375 374.999991" height="500" preserveAspectRatio="xMidYMid meet" version="1.0"><defs><clipPath id="id1"><path d="M 26.726562 26.726562 L 348.476562 26.726562 L 348.476562 348.476562 L 26.726562 348.476562 Z M 26.726562 26.726562 " clip-rule="nonzero"/></clipPath></defs><g clip-path="url(#id1)"><path fill="#332c54" d="M 335.859375 249.9375 C 301.433594 331.820312 207.144531 370.289062 125.261719 335.863281 C 113.769531 331.050781 102.980469 324.976562 92.90625 317.648438 C 82.828125 310.316406 73.730469 301.921875 65.617188 292.464844 C 108.84375 259.035156 168.402344 249.171875 222.273438 271.8125 L 235.878906 239.503906 C 170.648438 212.074219 98.574219 223.621094 45.835938 263.5 C 43.011719 258.242188 40.492188 252.84375 38.269531 247.304688 C 36.046875 241.765625 34.140625 236.121094 32.550781 230.367188 C 30.957031 224.617188 29.691406 218.792969 28.75 212.902344 C 27.808594 207.007812 27.199219 201.082031 26.917969 195.117188 C 26.636719 189.15625 26.6875 183.199219 27.074219 177.242188 C 27.457031 171.289062 28.171875 165.371094 29.21875 159.496094 C 30.261719 153.621094 31.628906 147.820312 33.320312 142.097656 C 35.011719 136.375 37.019531 130.761719 39.335938 125.261719 C 73.761719 43.382812 168.054688 4.910156 249.9375 39.335938 C 256.398438 42.042969 262.65625 45.164062 268.710938 48.691406 C 274.761719 52.222656 280.558594 56.132812 286.097656 60.421875 C 291.636719 64.710938 296.875 69.34375 301.804688 74.324219 C 306.734375 79.300781 311.320312 84.578125 315.558594 90.15625 C 272.691406 121.222656 215.066406 129.863281 162.792969 107.890625 L 149.1875 140.199219 C 212.136719 166.664062 281.429688 156.847656 333.617188 120.289062 C 335.957031 125.34375 338.023438 130.503906 339.824219 135.769531 C 341.625 141.039062 343.148438 146.386719 344.390625 151.8125 C 345.632812 157.238281 346.59375 162.714844 347.265625 168.238281 C 347.941406 173.765625 348.324219 179.3125 348.421875 184.878906 C 348.515625 190.445312 348.324219 196 347.84375 201.546875 C 347.359375 207.089844 346.589844 212.597656 345.535156 218.0625 C 344.480469 223.527344 343.144531 228.925781 341.527344 234.253906 C 339.910156 239.578125 338.019531 244.808594 335.859375 249.9375 Z M 335.859375 249.9375 " fill-opacity="1" fill-rule="nonzero"/></g></svg>