<svg xmlns="http://www.w3.org/2000/svg" xmlns:xlink="http://www.w3.org/1999/xlink" width="500" zoomAndPan="magnify" viewBox="0 0 375 374.999991" height="500" preserveAspectRatio="xMidYMid meet" version="1.0"><defs><g/><clipPath id="id1"><path d="M 14.757812 14.757812 L 360.253906 14.757812 L 360.253906 360.253906 L 14.757812 360.253906 Z M 14.757812 14.757812 " clip-rule="nonzero"/></clipPath><clipPath id="id2"><path d="M 28.835938 28.835938 L 345.910156 28.835938 L 345.910156 345.910156 L 28.835938 345.910156 Z M 28.835938 28.835938 " clip-rule="nonzero"/></clipPath><clipPath id="id3"><path d="M 56.804688 179.328125 L 74.417969 179.328125 L 74.417969 195.589844 L 56.804688 195.589844 Z M 56.804688 179.328125 " clip-rule="nonzero"/></clipPath><clipPath id="id4"><path d="M 301.039062 179.328125 L 318.652344 179.328125 L 318.652344 195.589844 L 301.039062 195.589844 Z M 301.039062 179.328125 " clip-rule="nonzero"/></clipPath><clipPath id="id5"><path d="M 97.25 97.25 L 277.449219 97.25 L 277.449219 277.449219 L 97.25 277.449219 Z M 97.25 97.25 " clip-rule="nonzero"/></clipPath><clipPath id="id6"><path d="M 104.765625 104.765625 L 270.058594 104.765625 L 270.058594 270.058594 L 104.765625 270.058594 Z M 104.765625 104.765625 " clip-rule="nonzero"/></clipPath></defs><g clip-path="url(#id1)"><path fill="#1c2738" d="M 187.507812 14.757812 C 92.101562 14.757812 14.757812 92.101562 14.757812 187.507812 C 14.757812 282.914062 92.101562 360.253906 187.507812 360.253906 C 282.914062 360.253906 360.253906 282.914062 360.253906 187.507812 C 360.253906 92.101562 282.914062 14.757812 187.507812 14.757812 " fill-opacity="1" fill-rule="nonzero"/></g><g clip-path="url(#id2)"><path fill="#ffb703" d="M 187.375 345.910156 C 145.046875 345.910156 105.191406 329.4375 75.28125 299.464844 C 45.308594 269.558594 28.835938 229.699219 28.835938 187.375 C 28.835938 145.046875 45.308594 105.191406 75.28125 75.28125 C 105.191406 45.308594 145.046875 28.835938 187.375 28.835938 C 229.699219 28.835938 269.558594 45.308594 299.464844 75.28125 C 329.4375 105.253906 345.910156 145.046875 345.910156 187.375 C 345.910156 229.699219 329.4375 269.558594 299.464844 299.464844 C 269.558594 329.4375 229.699219 345.910156 187.375 345.910156 Z M 187.375 38.339844 C 147.582031 38.339844 110.132812 53.863281 82 82 C 53.863281 110.132812 38.339844 147.582031 38.339844 187.375 C 38.339844 227.164062 53.863281 264.613281 82 292.746094 C 110.132812 320.882812 147.582031 336.40625 187.375 336.40625 C 227.164062 336.40625 264.613281 320.882812 292.746094 292.746094 C 320.882812 264.613281 336.40625 227.164062 336.40625 187.375 C 336.40625 147.582031 320.882812 110.132812 292.746094 82 C 264.613281 53.863281 227.164062 38.339844 187.375 38.339844 Z M 187.375 38.339844 " fill-opacity="1" fill-rule="nonzero"/></g><g clip-path="url(#id3)"><path fill="#e9f6ee" d="M 65.632812 179.378906 L 68.347656 184.714844 L 74.417969 185.570312 L 70.023438 189.726562 L 71.0625 195.589844 L 65.632812 192.820312 L 60.199219 195.589844 L 61.238281 189.726562 L 56.847656 185.570312 L 62.917969 184.714844 Z M 65.632812 179.378906 " fill-opacity="1" fill-rule="nonzero"/><path fill="#e9f6ee" d="M 65.589844 179.328125 L 68.308594 184.664062 L 74.378906 185.519531 L 69.984375 189.675781 L 71.023438 195.535156 L 65.589844 192.769531 L 60.160156 195.535156 L 61.199219 189.675781 L 56.804688 185.519531 L 62.875 184.664062 Z M 65.589844 179.328125 " fill-opacity="1" fill-rule="nonzero"/><path fill="#e9f6ee" d="M 65.589844 179.328125 L 68.308594 184.664062 L 74.378906 185.519531 L 69.984375 189.675781 L 71.023438 195.535156 L 65.589844 192.769531 L 60.160156 195.535156 L 61.199219 189.675781 L 56.804688 185.519531 L 62.875 184.664062 Z M 65.589844 179.328125 " fill-opacity="1" fill-rule="nonzero"/><path fill="#e9f6ee" d="M 65.589844 179.328125 L 68.308594 184.664062 L 74.378906 185.519531 L 69.984375 189.675781 L 71.023438 195.535156 L 65.589844 192.769531 L 60.160156 195.535156 L 61.199219 189.675781 L 56.804688 185.519531 L 62.875 184.664062 Z M 65.589844 179.328125 " fill-opacity="1" fill-rule="nonzero"/></g><g clip-path="url(#id4)"><path fill="#e9f6ee" d="M 309.871094 179.378906 L 312.582031 184.714844 L 318.652344 185.570312 L 314.257812 189.726562 L 315.300781 195.589844 L 309.871094 192.820312 L 304.4375 195.589844 L 305.472656 189.726562 L 301.082031 185.570312 L 307.152344 184.714844 Z M 309.871094 179.378906 " fill-opacity="1" fill-rule="nonzero"/><path fill="#e9f6ee" d="M 309.828125 179.328125 L 312.542969 184.664062 L 318.613281 185.519531 L 314.222656 189.675781 L 315.257812 195.535156 L 309.828125 192.769531 L 304.398438 195.535156 L 305.433594 189.675781 L 301.039062 185.519531 L 307.109375 184.664062 Z M 309.828125 179.328125 " fill-opacity="1" fill-rule="nonzero"/><path fill="#e9f6ee" d="M 309.828125 179.328125 L 312.542969 184.664062 L 318.613281 185.519531 L 314.222656 189.675781 L 315.257812 195.535156 L 309.828125 192.769531 L 304.398438 195.535156 L 305.433594 189.675781 L 301.039062 185.519531 L 307.109375 184.664062 Z M 309.828125 179.328125 " fill-opacity="1" fill-rule="nonzero"/><path fill="#e9f6ee" d="M 309.828125 179.328125 L 312.542969 184.664062 L 318.613281 185.519531 L 314.222656 189.675781 L 315.257812 195.535156 L 309.828125 192.769531 L 304.398438 195.535156 L 305.433594 189.675781 L 301.039062 185.519531 L 307.109375 184.664062 Z M 309.828125 179.328125 " fill-opacity="1" fill-rule="nonzero"/></g><g fill="#e9f6ee" fill-opacity="1"><g transform="translate(101.7402, 283.72181)"><g><path d="M 5.09375 3.875 L 9.625 -12.8125 L 12.484375 -10.625 L 8.71875 2.421875 L 20.375 -4.625 L 23.109375 -2.546875 L 8.15625 6.203125 Z M 5.09375 3.875 "/></g></g></g><g fill="#e9f6ee" fill-opacity="1"><g transform="translate(118.046673, 295.768619)"><g><path d="M 5.625 3.0625 L 8.5625 -2.328125 L 7.53125 -14.140625 L 10.890625 -12.3125 L 11.5 -4.0625 L 18.796875 -8.015625 L 21.96875 -6.296875 L 11.46875 -0.71875 L 8.546875 4.65625 Z M 5.625 3.0625 "/></g></g></g><g fill="#e9f6ee" fill-opacity="1"><g transform="translate(135.461861, 304.970602)"><g><path d="M 6.75 -14.59375 L 9.71875 -13.53125 L 13.734375 -1.09375 L 17.21875 -10.84375 L 20.15625 -9.796875 L 14.765625 5.28125 L 12 4.296875 L 7.921875 -8.546875 L 4.3125 1.546875 L 1.359375 0.484375 Z M 6.75 -14.59375 "/></g></g></g><g fill="#e9f6ee" fill-opacity="1"><g transform="translate(154.763751, 311.351719)"><g><path d="M 1.40625 0.328125 L 5.046875 -15.265625 L 8.28125 -14.515625 L 4.640625 1.078125 Z M 1.40625 0.328125 "/></g></g></g><g fill="#e9f6ee" fill-opacity="1"><g transform="translate(163.851328, 313.529147)"><g><path d="M 1.421875 0.1875 L 3.453125 -15.703125 L 6.765625 -15.28125 L 5.109375 -2.296875 L 13.796875 -1.1875 L 13.421875 1.71875 Z M 1.421875 0.1875 "/></g></g></g><g fill="#e9f6ee" fill-opacity="1"><g transform="translate(181.174918, 315.359114)"><g/></g></g><g fill="#e9f6ee" fill-opacity="1"><g transform="translate(188.838199, 315.688462)"><g><path d="M -0.109375 -2.546875 L 1.640625 -5.03125 C 2.628906 -4.28125 3.5625 -3.75 4.4375 -3.4375 C 5.320312 -3.132812 6.242188 -3.015625 7.203125 -3.078125 C 8.191406 -3.140625 8.972656 -3.367188 9.546875 -3.765625 C 10.128906 -4.160156 10.398438 -4.660156 10.359375 -5.265625 C 10.316406 -5.816406 10.082031 -6.234375 9.65625 -6.515625 C 9.238281 -6.796875 8.550781 -6.976562 7.59375 -7.0625 L 4.375 -7.421875 C 3 -7.566406 1.929688 -7.976562 1.171875 -8.65625 C 0.410156 -9.34375 -0.0078125 -10.265625 -0.09375 -11.421875 C -0.1875 -12.910156 0.300781 -14.125 1.375 -15.0625 C 2.457031 -16.007812 3.96875 -16.546875 5.90625 -16.671875 C 7.0625 -16.742188 8.238281 -16.617188 9.4375 -16.296875 C 10.644531 -15.984375 11.71875 -15.507812 12.65625 -14.875 L 11.03125 -12.265625 C 10.144531 -12.867188 9.28125 -13.300781 8.4375 -13.5625 C 7.59375 -13.820312 6.734375 -13.921875 5.859375 -13.859375 C 4.972656 -13.804688 4.273438 -13.597656 3.765625 -13.234375 C 3.253906 -12.867188 3.015625 -12.414062 3.046875 -11.875 C 3.078125 -11.394531 3.273438 -11.023438 3.640625 -10.765625 C 4.015625 -10.515625 4.617188 -10.351562 5.453125 -10.28125 L 8.515625 -9.984375 C 10.097656 -9.828125 11.316406 -9.394531 12.171875 -8.6875 C 13.023438 -7.988281 13.492188 -7.023438 13.578125 -5.796875 C 13.671875 -4.242188 13.132812 -2.960938 11.96875 -1.953125 C 10.8125 -0.941406 9.210938 -0.367188 7.171875 -0.234375 C 5.878906 -0.148438 4.597656 -0.3125 3.328125 -0.71875 C 2.066406 -1.125 0.921875 -1.734375 -0.109375 -2.546875 Z M -0.109375 -2.546875 "/></g></g></g><g fill="#e9f6ee" fill-opacity="1"><g transform="translate(206.652436, 314.304712)"><g><path d="M -2.25 -12.90625 L -2.84375 -15.765625 L 10.984375 -18.625 L 11.578125 -15.765625 L 6.3125 -14.671875 L 8.953125 -1.84375 L 5.6875 -1.171875 L 3.046875 -14 Z M -2.25 -12.90625 "/></g></g></g><g fill="#e9f6ee" fill-opacity="1"><g transform="translate(224.719005, 310.439045)"><g><path d="M 13.84375 -13.75 C 14.238281 -12.675781 14.40625 -11.585938 14.34375 -10.484375 C 14.289062 -9.378906 14.039062 -8.347656 13.59375 -7.390625 C 13.144531 -6.429688 12.507812 -5.566406 11.6875 -4.796875 C 10.875 -4.035156 9.910156 -3.445312 8.796875 -3.03125 C 7.691406 -2.613281 6.578125 -2.421875 5.453125 -2.453125 C 4.335938 -2.492188 3.296875 -2.726562 2.328125 -3.15625 C 1.359375 -3.582031 0.488281 -4.191406 -0.28125 -4.984375 C -1.050781 -5.785156 -1.632812 -6.722656 -2.03125 -7.796875 C -2.4375 -8.867188 -2.609375 -9.953125 -2.546875 -11.046875 C -2.492188 -12.148438 -2.242188 -13.179688 -1.796875 -14.140625 C -1.347656 -15.109375 -0.71875 -15.972656 0.09375 -16.734375 C 0.914062 -17.503906 1.878906 -18.097656 2.984375 -18.515625 C 4.097656 -18.929688 5.210938 -19.117188 6.328125 -19.078125 C 7.453125 -19.046875 8.5 -18.8125 9.46875 -18.375 C 10.4375 -17.945312 11.304688 -17.335938 12.078125 -16.546875 C 12.847656 -15.753906 13.4375 -14.820312 13.84375 -13.75 Z M 10.640625 -12.546875 C 10.378906 -13.253906 10.015625 -13.859375 9.546875 -14.359375 C 9.085938 -14.859375 8.566406 -15.242188 7.984375 -15.515625 C 7.398438 -15.785156 6.769531 -15.9375 6.09375 -15.96875 C 5.414062 -16.007812 4.738281 -15.90625 4.0625 -15.65625 C 3.382812 -15.40625 2.800781 -15.039062 2.3125 -14.5625 C 1.832031 -14.09375 1.460938 -13.5625 1.203125 -12.96875 C 0.953125 -12.382812 0.816406 -11.75 0.796875 -11.0625 C 0.773438 -10.382812 0.894531 -9.691406 1.15625 -8.984375 C 1.414062 -8.296875 1.78125 -7.695312 2.25 -7.1875 C 2.71875 -6.6875 3.238281 -6.296875 3.8125 -6.015625 C 4.394531 -5.734375 5.019531 -5.578125 5.6875 -5.546875 C 6.363281 -5.523438 7.039062 -5.640625 7.71875 -5.890625 C 8.394531 -6.140625 8.976562 -6.492188 9.46875 -6.953125 C 9.957031 -7.421875 10.332031 -7.953125 10.59375 -8.546875 C 10.851562 -9.148438 10.988281 -9.796875 11 -10.484375 C 11.019531 -11.171875 10.898438 -11.859375 10.640625 -12.546875 Z M 10.640625 -12.546875 "/></g></g></g><g fill="#e9f6ee" fill-opacity="1"><g transform="translate(245.325989, 302.279124)"><g><path d="M 1.25 -0.703125 L -6.65625 -14.625 L 0.15625 -18.5 C 0.851562 -18.894531 1.550781 -19.15625 2.25 -19.28125 C 2.957031 -19.414062 3.632812 -19.410156 4.28125 -19.265625 C 4.925781 -19.128906 5.519531 -18.863281 6.0625 -18.46875 C 6.601562 -18.070312 7.050781 -17.5625 7.40625 -16.9375 C 7.90625 -16.050781 8.101562 -15.125 8 -14.15625 C 7.894531 -13.1875 7.523438 -12.300781 6.890625 -11.5 L 13.234375 -7.515625 L 10.015625 -5.6875 L 4.25 -9.484375 L 1.109375 -7.703125 L 4.140625 -2.359375 Z M 1.296875 -15.875 L -2.359375 -13.796875 L -0.234375 -10.0625 L 3.421875 -12.140625 C 4.078125 -12.503906 4.5 -12.96875 4.6875 -13.53125 C 4.875 -14.101562 4.8125 -14.671875 4.5 -15.234375 C 4.1875 -15.785156 3.738281 -16.117188 3.15625 -16.234375 C 2.570312 -16.359375 1.953125 -16.238281 1.296875 -15.875 Z M 1.296875 -15.875 "/></g></g></g><g fill="#e9f6ee" fill-opacity="1"><g transform="translate(261.687367, 292.67701)"><g><path d="M 1.140625 -0.875 L -8.65625 -13.546875 L 1.078125 -21.09375 L 2.828125 -18.8125 L -4.28125 -13.3125 L -2.046875 -10.421875 L 2.640625 -14.046875 L 4.359375 -11.828125 L -0.328125 -8.203125 L 2 -5.203125 L 9.1875 -10.75 L 10.953125 -8.46875 Z M 1.140625 -0.875 "/></g></g></g><g clip-path="url(#id5)"><path fill="#ffb703" d="M 187.347656 97.25 C 137.589844 97.25 97.25 137.589844 97.25 187.347656 C 97.25 237.109375 137.589844 277.449219 187.347656 277.449219 C 237.109375 277.449219 277.449219 237.109375 277.449219 187.347656 C 277.449219 137.589844 237.109375 97.25 187.347656 97.25 " fill-opacity="1" fill-rule="nonzero"/></g><g fill="#e9f6ee" fill-opacity="1"><g transform="translate(120.923742, 101.109208)"><g><path d="M 13.25 -19.546875 C 14 -18.304688 14.484375 -17.019531 14.703125 -15.6875 C 14.929688 -14.351562 14.898438 -13.070312 14.609375 -11.84375 C 14.328125 -10.625 13.789062 -9.472656 13 -8.390625 C 12.21875 -7.316406 11.222656 -6.414062 10.015625 -5.6875 C 8.753906 -4.925781 7.441406 -4.441406 6.078125 -4.234375 C 4.710938 -4.023438 3.390625 -4.066406 2.109375 -4.359375 C 0.835938 -4.660156 -0.347656 -5.203125 -1.453125 -5.984375 C -2.566406 -6.773438 -3.5 -7.785156 -4.25 -9.015625 C -4.988281 -10.242188 -5.445312 -11.523438 -5.625 -12.859375 C -5.8125 -14.203125 -5.742188 -15.507812 -5.421875 -16.78125 C -5.097656 -18.050781 -4.523438 -19.238281 -3.703125 -20.34375 C -2.878906 -21.457031 -1.84375 -22.390625 -0.59375 -23.140625 C 0.820312 -23.992188 2.320312 -24.515625 3.90625 -24.703125 C 5.488281 -24.890625 6.976562 -24.738281 8.375 -24.25 L 7.296875 -20.5 C 6.265625 -20.851562 5.242188 -20.984375 4.234375 -20.890625 C 3.222656 -20.796875 2.265625 -20.472656 1.359375 -19.921875 C 0.609375 -19.472656 -0.0078125 -18.910156 -0.5 -18.234375 C -0.988281 -17.554688 -1.320312 -16.820312 -1.5 -16.03125 C -1.675781 -15.25 -1.695312 -14.441406 -1.5625 -13.609375 C -1.425781 -12.785156 -1.117188 -11.976562 -0.640625 -11.1875 C -0.160156 -10.382812 0.421875 -9.726562 1.109375 -9.21875 C 1.796875 -8.707031 2.53125 -8.351562 3.3125 -8.15625 C 4.09375 -7.96875 4.90625 -7.929688 5.75 -8.046875 C 6.59375 -8.160156 7.390625 -8.445312 8.140625 -8.90625 C 9.335938 -9.625 10.164062 -10.578125 10.625 -11.765625 C 11.09375 -12.960938 11.125 -14.140625 10.71875 -15.296875 L 5.703125 -12.265625 L 3.859375 -15.3125 L 12.609375 -20.609375 Z M 13.25 -19.546875 "/></g></g></g><g fill="#e9f6ee" fill-opacity="1"><g transform="translate(140.847873, 89.134366)"><g><path d="M 17.578125 -16.53125 C 18.035156 -15.1875 18.207031 -13.832031 18.09375 -12.46875 C 17.988281 -11.101562 17.640625 -9.835938 17.046875 -8.671875 C 16.460938 -7.503906 15.648438 -6.457031 14.609375 -5.53125 C 13.578125 -4.613281 12.367188 -3.914062 10.984375 -3.4375 C 9.609375 -2.96875 8.222656 -2.773438 6.828125 -2.859375 C 5.441406 -2.953125 4.15625 -3.273438 2.96875 -3.828125 C 1.789062 -4.378906 0.738281 -5.160156 -0.1875 -6.171875 C -1.113281 -7.179688 -1.804688 -8.359375 -2.265625 -9.703125 C -2.722656 -11.035156 -2.894531 -12.382812 -2.78125 -13.75 C -2.675781 -15.113281 -2.328125 -16.378906 -1.734375 -17.546875 C -1.148438 -18.722656 -0.335938 -19.769531 0.703125 -20.6875 C 1.742188 -21.601562 2.953125 -22.296875 4.328125 -22.765625 C 5.710938 -23.242188 7.097656 -23.441406 8.484375 -23.359375 C 9.867188 -23.273438 11.148438 -22.953125 12.328125 -22.390625 C 13.515625 -21.835938 14.570312 -21.054688 15.5 -20.046875 C 16.425781 -19.035156 17.117188 -17.863281 17.578125 -16.53125 Z M 13.59375 -15.15625 C 13.289062 -16.03125 12.859375 -16.785156 12.296875 -17.421875 C 11.734375 -18.054688 11.09375 -18.550781 10.375 -18.90625 C 9.664062 -19.269531 8.890625 -19.484375 8.046875 -19.546875 C 7.210938 -19.609375 6.378906 -19.492188 5.546875 -19.203125 C 4.710938 -18.921875 3.988281 -18.5 3.375 -17.9375 C 2.757812 -17.375 2.28125 -16.726562 1.9375 -16 C 1.59375 -15.28125 1.394531 -14.5 1.34375 -13.65625 C 1.300781 -12.8125 1.429688 -11.953125 1.734375 -11.078125 C 2.023438 -10.210938 2.453125 -9.457031 3.015625 -8.8125 C 3.578125 -8.175781 4.21875 -7.675781 4.9375 -7.3125 C 5.65625 -6.945312 6.425781 -6.734375 7.25 -6.671875 C 8.082031 -6.609375 8.914062 -6.71875 9.75 -7 C 10.582031 -7.289062 11.3125 -7.71875 11.9375 -8.28125 C 12.5625 -8.84375 13.039062 -9.488281 13.375 -10.21875 C 13.71875 -10.945312 13.910156 -11.734375 13.953125 -12.578125 C 14.003906 -13.429688 13.882812 -14.289062 13.59375 -15.15625 Z M 13.59375 -15.15625 "/></g></g></g><g fill="#e9f6ee" fill-opacity="1"><g transform="translate(163.588311, 81.674806)"><g><path d="M 1.765625 -0.25 L -0.96875 -19.875 L 3.09375 -20.4375 L 5.328125 -4.40625 L 16.078125 -5.90625 L 16.578125 -2.3125 Z M 1.765625 -0.25 "/></g></g></g><g fill="#e9f6ee" fill-opacity="1"><g transform="translate(182.212922, 79.026844)"><g><path d="M 1.78125 0.078125 L 2.671875 -19.71875 L 10.28125 -19.375 C 11.75 -19.300781 13.113281 -18.984375 14.375 -18.421875 C 15.632812 -17.859375 16.710938 -17.109375 17.609375 -16.171875 C 18.503906 -15.242188 19.191406 -14.15625 19.671875 -12.90625 C 20.160156 -11.664062 20.367188 -10.347656 20.296875 -8.953125 C 20.234375 -7.566406 19.90625 -6.28125 19.3125 -5.09375 C 18.726562 -3.914062 17.945312 -2.910156 16.96875 -2.078125 C 15.988281 -1.242188 14.847656 -0.597656 13.546875 -0.140625 C 12.242188 0.304688 10.859375 0.492188 9.390625 0.421875 Z M 10.09375 -15.734375 L 6.625 -15.890625 L 6.0625 -3.390625 L 9.53125 -3.234375 C 10.394531 -3.191406 11.210938 -3.3125 11.984375 -3.59375 C 12.765625 -3.882812 13.453125 -4.296875 14.046875 -4.828125 C 14.640625 -5.359375 15.113281 -5.988281 15.46875 -6.71875 C 15.820312 -7.457031 16.015625 -8.265625 16.046875 -9.140625 C 16.085938 -10.023438 15.96875 -10.859375 15.6875 -11.640625 C 15.40625 -12.429688 14.992188 -13.125 14.453125 -13.71875 C 13.910156 -14.3125 13.265625 -14.785156 12.515625 -15.140625 C 11.765625 -15.492188 10.957031 -15.691406 10.09375 -15.734375 Z M 10.09375 -15.734375 "/></g></g></g><g fill="#e9f6ee" fill-opacity="1"><g transform="translate(204.436542, 80.599125)"><g><path d="M 1.75 0.328125 L 5.4375 -19.140625 L 9.46875 -18.375 L 5.78125 1.09375 Z M 1.75 0.328125 "/></g></g></g><g fill="#e9f6ee" fill-opacity="1"><g transform="translate(213.564165, 82.077168)"><g><path d="M 1.6875 0.5625 L 7.890625 -18.25 L 22.359375 -13.484375 L 21.234375 -10.109375 L 10.671875 -13.59375 L 9.265625 -9.28125 L 16.21875 -6.984375 L 15.140625 -3.703125 L 8.1875 -6 L 6.703125 -1.546875 L 17.375 1.96875 L 16.265625 5.359375 Z M 1.6875 0.5625 "/></g></g></g><g fill="#e9f6ee" fill-opacity="1"><g transform="translate(231.929994, 88.250863)"><g><path d="M 1.546875 -2.734375 L 5.03125 -4.21875 C 5.5625 -2.789062 6.1875 -1.625 6.90625 -0.71875 C 7.632812 0.1875 8.523438 0.921875 9.578125 1.484375 C 10.660156 2.066406 11.628906 2.332031 12.484375 2.28125 C 13.347656 2.226562 13.957031 1.867188 14.3125 1.203125 C 14.632812 0.609375 14.660156 0.0234375 14.390625 -0.546875 C 14.128906 -1.117188 13.535156 -1.757812 12.609375 -2.46875 L 9.453125 -4.9375 C 8.085938 -5.988281 7.234375 -7.117188 6.890625 -8.328125 C 6.546875 -9.535156 6.710938 -10.769531 7.390625 -12.03125 C 8.265625 -13.664062 9.578125 -14.628906 11.328125 -14.921875 C 13.078125 -15.210938 15.003906 -14.789062 17.109375 -13.65625 C 18.367188 -12.976562 19.523438 -12.078125 20.578125 -10.953125 C 21.640625 -9.828125 22.453125 -8.625 23.015625 -7.34375 L 19.609375 -5.6875 C 19.066406 -6.894531 18.4375 -7.910156 17.71875 -8.734375 C 17 -9.554688 16.171875 -10.21875 15.234375 -10.71875 C 14.253906 -11.238281 13.378906 -11.476562 12.609375 -11.4375 C 11.835938 -11.394531 11.289062 -11.070312 10.96875 -10.46875 C 10.6875 -9.9375 10.65625 -9.414062 10.875 -8.90625 C 11.09375 -8.40625 11.625 -7.847656 12.46875 -7.234375 L 15.453125 -4.9375 C 17.023438 -3.71875 18.03125 -2.460938 18.46875 -1.171875 C 18.90625 0.109375 18.757812 1.425781 18.03125 2.78125 C 17.125 4.476562 15.726562 5.472656 13.84375 5.765625 C 11.96875 6.066406 9.914062 5.625 7.6875 4.4375 C 6.289062 3.6875 5.054688 2.679688 3.984375 1.421875 C 2.910156 0.171875 2.097656 -1.210938 1.546875 -2.734375 Z M 1.546875 -2.734375 "/></g></g></g><g fill="#e9f6ee" fill-opacity="1"><g transform="translate(248.885298, 97.860055)"><g/></g></g><g clip-path="url(#id6)"><path fill="#1c2738" d="M 187.414062 105.667969 L 187.414062 104.757812 C 141.765625 104.757812 104.761719 141.765625 104.757812 187.414062 C 104.761719 233.0625 141.765625 270.066406 187.414062 270.066406 C 233.058594 270.066406 270.066406 233.0625 270.066406 187.414062 C 270.066406 141.765625 233.058594 104.757812 187.414062 104.757812 L 187.414062 106.574219 C 209.738281 106.574219 229.941406 115.621094 244.574219 130.253906 C 259.203125 144.882812 268.25 165.089844 268.25 187.414062 C 268.25 209.738281 259.203125 229.941406 244.574219 244.574219 C 229.941406 259.203125 209.738281 268.25 187.414062 268.25 C 165.085938 268.25 144.882812 259.203125 130.25 244.574219 C 115.621094 229.941406 106.574219 209.742188 106.574219 187.414062 C 106.574219 165.089844 115.621094 144.882812 130.25 130.253906 C 144.882812 115.621094 165.085938 106.574219 187.414062 106.574219 L 187.414062 105.667969 " fill-opacity="1" fill-rule="nonzero"/></g><path fill="#1c2738" d="M 187.414062 197.582031 L 187.414062 196.671875 C 184.851562 196.671875 182.542969 195.640625 180.867188 193.960938 C 179.191406 192.28125 178.15625 189.972656 178.15625 187.414062 C 178.15625 184.855469 179.191406 182.546875 180.867188 180.867188 C 182.542969 179.191406 184.851562 178.15625 187.414062 178.15625 C 189.972656 178.15625 192.277344 179.191406 193.957031 180.867188 C 195.636719 182.546875 196.667969 184.855469 196.667969 187.414062 C 196.667969 189.972656 195.636719 192.28125 193.957031 193.960938 C 192.277344 195.640625 189.972656 196.671875 187.414062 196.671875 L 187.414062 198.488281 C 193.527344 198.488281 198.484375 193.53125 198.484375 187.414062 C 198.484375 181.300781 193.527344 176.339844 187.414062 176.339844 C 181.296875 176.339844 176.339844 181.300781 176.339844 187.414062 C 176.339844 193.53125 181.296875 198.488281 187.414062 198.488281 Z M 187.414062 149.066406 L 187.414062 148.160156 C 165.730469 148.160156 148.15625 165.734375 148.152344 187.414062 C 148.15625 209.097656 165.730469 226.667969 187.414062 226.667969 C 209.09375 226.667969 226.667969 209.097656 226.667969 187.414062 C 226.667969 165.738281 209.09375 148.160156 187.414062 148.160156 L 187.414062 149.972656 C 197.753906 149.972656 207.109375 154.164062 213.886719 160.941406 C 220.664062 167.71875 224.851562 177.074219 224.851562 187.414062 C 224.851562 197.757812 220.664062 207.109375 213.886719 213.890625 C 207.109375 220.664062 197.753906 224.851562 187.414062 224.851562 C 177.070312 224.851562 167.714844 220.664062 160.9375 213.890625 C 154.160156 207.109375 149.972656 197.757812 149.972656 187.414062 C 149.972656 177.074219 154.160156 167.71875 160.9375 160.941406 C 167.714844 154.164062 177.070312 149.972656 187.414062 149.972656 L 187.414062 149.066406 " fill-opacity="1" fill-rule="nonzero"/><path fill="#1c2738" d="M 119.457031 210.839844 C 125.265625 227.546875 137.082031 241.496094 152.3125 250.074219 C 152.75 250.320312 153.300781 250.167969 153.546875 249.730469 C 153.792969 249.292969 153.640625 248.742188 153.203125 248.492188 C 138.355469 240.132812 126.828125 226.523438 121.171875 210.242188 C 121.007812 209.769531 120.492188 209.519531 120.019531 209.683594 C 119.542969 209.847656 119.292969 210.367188 119.457031 210.839844 " fill-opacity="1" fill-rule="nonzero"/><path fill="#1c2738" d="M 114.921875 212.421875 C 121.105469 230.277344 133.691406 245.152344 149.957031 254.28125 C 150.398438 254.527344 150.949219 254.371094 151.195312 253.933594 C 151.441406 253.496094 151.285156 252.945312 150.847656 252.699219 C 134.96875 243.785156 122.671875 229.257812 116.640625 211.828125 C 116.472656 211.355469 115.957031 211.105469 115.484375 211.269531 C 115.007812 211.433594 114.761719 211.949219 114.921875 212.425781 " fill-opacity="1" fill-rule="nonzero"/><path fill="#1c2738" d="M 144.667969 202.023438 C 148.292969 212.605469 155.714844 221.40625 165.347656 226.800781 C 165.785156 227.046875 166.339844 226.890625 166.585938 226.453125 C 166.828125 226.015625 166.671875 225.460938 166.234375 225.21875 C 156.988281 220.039062 149.863281 211.585938 146.382812 201.433594 C 146.222656 200.960938 145.707031 200.707031 145.230469 200.871094 C 144.757812 201.035156 144.503906 201.550781 144.667969 202.023438 " fill-opacity="1" fill-rule="nonzero"/><path fill="#1c2738" d="M 129.5625 207.304688 C 134.472656 221.625 144.492188 233.503906 157.523438 240.777344 C 157.960938 241.019531 158.515625 240.863281 158.757812 240.425781 C 159.003906 239.988281 158.847656 239.4375 158.410156 239.191406 C 145.765625 232.136719 136.042969 220.609375 131.28125 206.714844 C 131.117188 206.242188 130.601562 205.988281 130.128906 206.148438 C 129.652344 206.3125 129.398438 206.828125 129.5625 207.304688 " fill-opacity="1" fill-rule="nonzero"/><path fill="#1c2738" d="M 134.765625 205.488281 C 139.25 218.472656 148.394531 229.300781 160.226562 235.945312 C 160.664062 236.191406 161.214844 236.035156 161.464844 235.597656 C 161.707031 235.160156 161.554688 234.609375 161.117188 234.363281 C 149.667969 227.933594 140.816406 217.453125 136.480469 204.894531 C 136.316406 204.421875 135.800781 204.171875 135.328125 204.332031 C 134.851562 204.496094 134.601562 205.015625 134.765625 205.488281 " fill-opacity="1" fill-rule="nonzero"/><path fill="#1c2738" d="M 139.933594 203.675781 C 142.324219 210.648438 146.234375 217.011719 151.496094 222.402344 C 154.910156 225.898438 158.746094 228.832031 162.902344 231.164062 C 163.339844 231.414062 163.894531 231.257812 164.136719 230.816406 C 164.382812 230.382812 164.230469 229.828125 163.792969 229.582031 C 159.785156 227.335938 156.089844 224.507812 152.796875 221.132812 C 147.71875 215.933594 143.953125 209.808594 141.652344 203.089844 C 141.492188 202.613281 140.972656 202.363281 140.5 202.523438 C 140.023438 202.6875 139.773438 203.203125 139.933594 203.675781 " fill-opacity="1" fill-rule="nonzero"/><path fill="#1c2738" d="M 124.246094 209.164062 C 127.476562 218.484375 132.746094 227.074219 139.734375 234.1875 C 144.199219 238.734375 149.285156 242.582031 154.785156 245.660156 C 155.222656 245.90625 155.777344 245.75 156.023438 245.3125 C 156.265625 244.875 156.109375 244.324219 155.675781 244.078125 C 150.320312 241.078125 145.371094 237.335938 141.027344 232.914062 C 134.234375 225.996094 129.101562 217.636719 125.960938 208.570312 C 125.796875 208.09375 125.28125 207.84375 124.808594 208.007812 C 124.332031 208.171875 124.082031 208.6875 124.246094 209.164062 " fill-opacity="1" fill-rule="nonzero"/><path fill="#1c2738" d="M 231.230469 162.730469 C 225.25 152.125 215.539062 143.910156 203.902344 139.871094 C 203.429688 139.703125 202.910156 139.953125 202.746094 140.425781 C 202.582031 140.902344 202.832031 141.417969 203.304688 141.582031 C 214.519531 145.480469 223.886719 153.402344 229.648438 163.625 C 229.894531 164.058594 230.449219 164.214844 230.886719 163.96875 C 231.320312 163.722656 231.476562 163.167969 231.230469 162.730469 " fill-opacity="1" fill-rule="nonzero"/><path fill="#1c2738" d="M 254.339844 149.792969 C 250.824219 143.53125 246.441406 137.738281 241.273438 132.648438 C 233.136719 124.640625 223.304688 118.589844 212.636719 114.871094 C 212.164062 114.707031 211.644531 114.957031 211.480469 115.433594 C 211.316406 115.90625 211.566406 116.421875 212.039062 116.585938 C 222.457031 120.214844 232.058594 126.125 240 133.941406 C 245.046875 138.910156 249.324219 144.566406 252.757812 150.683594 C 253.003906 151.117188 253.558594 151.273438 253.992188 151.027344 C 254.429688 150.78125 254.585938 150.230469 254.339844 149.792969 " fill-opacity="1" fill-rule="nonzero"/><path fill="#1c2738" d="M 245.78125 154.585938 C 237.839844 140.457031 224.917969 129.535156 209.394531 124.148438 C 208.917969 123.984375 208.402344 124.234375 208.238281 124.707031 C 208.074219 125.179688 208.324219 125.699219 208.800781 125.863281 C 223.898438 131.101562 236.472656 141.730469 244.199219 155.472656 C 244.441406 155.910156 244.996094 156.066406 245.433594 155.820312 C 245.871094 155.574219 246.027344 155.023438 245.78125 154.585938 " fill-opacity="1" fill-rule="nonzero"/><path fill="#1c2738" d="M 250.179688 152.125 C 246.878906 146.238281 242.753906 140.796875 237.898438 136.019531 C 230.277344 128.527344 221.0625 122.855469 211.066406 119.371094 C 210.589844 119.207031 210.074219 119.460938 209.910156 119.933594 C 209.742188 120.40625 209.992188 120.921875 210.46875 121.089844 C 220.210938 124.484375 229.203125 130.015625 236.621094 137.316406 C 241.355469 141.96875 245.378906 147.273438 248.597656 153.011719 C 248.84375 153.453125 249.394531 153.605469 249.835938 153.359375 C 250.269531 153.117188 250.425781 152.5625 250.183594 152.125 " fill-opacity="1" fill-rule="nonzero"/><path fill="#1c2738" d="M 226.90625 165.15625 C 221.539062 155.566406 212.804688 148.207031 202.253906 144.578125 C 201.777344 144.417969 201.261719 144.671875 201.097656 145.144531 C 200.9375 145.617188 201.1875 146.132812 201.664062 146.296875 C 211.792969 149.777344 220.167969 156.835938 225.324219 166.042969 C 225.566406 166.480469 226.121094 166.636719 226.554688 166.390625 C 226.992188 166.148438 227.148438 165.59375 226.90625 165.15625 " fill-opacity="1" fill-rule="nonzero"/><path fill="#1c2738" d="M 236.0625 160.03125 C 229.457031 148.21875 218.699219 139.140625 205.714844 134.671875 C 205.238281 134.507812 204.722656 134.761719 204.558594 135.238281 C 204.398438 135.710938 204.648438 136.226562 205.125 136.390625 C 217.6875 140.714844 228.089844 149.492188 234.480469 160.914062 C 234.722656 161.351562 235.277344 161.507812 235.714844 161.265625 C 236.152344 161.019531 236.308594 160.464844 236.0625 160.03125 " fill-opacity="1" fill-rule="nonzero"/><path fill="#1c2738" d="M 240.808594 157.371094 C 233.511719 144.464844 221.667969 134.453125 207.523438 129.511719 C 207.050781 129.34375 206.53125 129.59375 206.367188 130.070312 C 206.199219 130.542969 206.449219 131.058594 206.921875 131.222656 C 220.648438 136.015625 232.152344 145.742188 239.226562 158.261719 C 239.472656 158.699219 240.027344 158.851562 240.460938 158.605469 C 240.898438 158.359375 241.054688 157.804688 240.808594 157.371094 " fill-opacity="1" fill-rule="nonzero"/></svg>